HIERARCHY
ROOT hip
{
  OFFSET 0 0 0
  CHANNELS 6 Xposition Yposition Zposition Zrotation Yrotation Xrotation
  JOINT abdomen
  {
    OFFSET 0 20.6881 -0.73152
    CHANNELS 3 Zrotation Xrotation Yrotation
    JOINT chest
    {
      OFFSET 0 11.7043 -0.48768
      CHANNELS 3 Zrotation Xrotation Yrotation
      JOINT neck
      {
        OFFSET 0 22.1894 -2.19456
        CHANNELS 3 Zrotation Xrotation Yrotation
        JOINT head
        {
          OFFSET -0.24384 7.07133 1.2192
          CHANNELS 3 Zrotation Xrotation Yrotation
          JOINT leftEye
          {
            OFFSET 4.14528 8.04674 8.04672
            CHANNELS 3 Zrotation Xrotation Yrotation
            End Site
            {
              OFFSET 1 0 0
            }
          }
          JOINT rightEye
          {
            OFFSET -3.6576 8.04674 8.04672
            CHANNELS 3 Zrotation Xrotation Yrotation
            End Site
            {
              OFFSET 1 0 0
            }
          }
        }
      }
      JOINT rCollar
      {
        OFFSET -2.68224 19.2634 -4.8768
        CHANNELS 3 Zrotation Xrotation Yrotation
        JOINT rShldr
        {
          OFFSET -8.77824 -1.95073 1.46304
          CHANNELS 3 Zrotation Xrotation Yrotation
          JOINT rForeArm
          {
            OFFSET -28.1742 -1.7115 0.48768
            CHANNELS 3 Zrotation Xrotation Yrotation
            JOINT rHand
            {
              OFFSET -22.5879 0.773209 7.07136
              CHANNELS 3 Zrotation Xrotation Yrotation
              JOINT rThumb1
              {
                OFFSET -1.2192 -0.487915 3.41376
                CHANNELS 3 Zrotation Xrotation Yrotation
                JOINT rThumb2
                {
                  OFFSET -3.37035 -0.52449 3.41376
                  CHANNELS 3 Zrotation Xrotation Yrotation
                  End Site
                  {
                    OFFSET -1.78271 -1.18214 1.43049
                  }
                }
              }
              JOINT rIndex1
              {
                OFFSET -7.75947 0.938293 5.60832
                CHANNELS 3 Zrotation Xrotation Yrotation
                JOINT rIndex2
                {
                  OFFSET -2.54057 -0.884171 1.56538
                  CHANNELS 3 Zrotation Xrotation Yrotation
                  End Site
                  {
                    OFFSET -1.62519 -0.234802 1.16502
                  }
                }
              }
              JOINT rMid1
              {
                OFFSET -8.24714 1.18213 3.41376
                CHANNELS 3 Zrotation Xrotation Yrotation
                JOINT rMid2
                {
                  OFFSET -3.10165 -0.590103 1.0647
                  CHANNELS 3 Zrotation Xrotation Yrotation
                  End Site
                  {
                    OFFSET -2.48547 -0.328903 0.83742
                  }
                }
              }
              JOINT rRing1
              {
                OFFSET -8.82822 0.546677 1.51678
                CHANNELS 3 Zrotation Xrotation Yrotation
                JOINT rRing2
                {
                  OFFSET -2.60934 -0.819778 -0.0198488
                  CHANNELS 3 Zrotation Xrotation Yrotation
                  End Site
                  {
                    OFFSET -2.33842 -0.294052 0.168128
                  }
                }
              }
              JOINT rPinky1
              {
                OFFSET -8.27202 -0.0477905 -0.4584
                CHANNELS 3 Zrotation Xrotation Yrotation
                JOINT rPinky2
                {
                  OFFSET -1.82734 -0.647385 -0.700984
                  CHANNELS 3 Zrotation Xrotation Yrotation
                  End Site
                  {
                    OFFSET -1.69225 -0.51767 -0.607171
                  }
                }
              }
            }
          }
        }
      }
      JOINT lCollar
      {
        OFFSET 2.68224 19.2634 -4.8768
        CHANNELS 3 Zrotation Xrotation Yrotation
        JOINT lShldr
        {
          OFFSET 8.77824 -1.95073 1.46304
          CHANNELS 3 Zrotation Xrotation Yrotation
          JOINT lForeArm
          {
            OFFSET 28.1742 -1.7115 0.48768
            CHANNELS 3 Zrotation Xrotation Yrotation
            JOINT lHand
            {
              OFFSET 22.5879 0.773209 7.07136
              CHANNELS 3 Zrotation Xrotation Yrotation
              JOINT lThumb1
              {
                OFFSET 1.2192 -0.487915 3.41376
                CHANNELS 3 Zrotation Xrotation Yrotation
                JOINT lThumb2
                {
                  OFFSET 3.37035 -0.52449 3.41376
                  CHANNELS 3 Zrotation Xrotation Yrotation
                  End Site
                  {
                    OFFSET 1.78271 -1.18214 1.43049
                  }
                }
              }
              JOINT lIndex1
              {
                OFFSET 7.75947 0.938293 5.60832
                CHANNELS 3 Zrotation Xrotation Yrotation
                JOINT lIndex2
                {
                  OFFSET 2.54057 -0.884171 1.56538
                  CHANNELS 3 Zrotation Xrotation Yrotation
                  End Site
                  {
                    OFFSET 1.62519 -0.234802 1.16502
                  }
                }
              }
              JOINT lMid1
              {
                OFFSET 8.24714 1.18213 3.41376
                CHANNELS 3 Zrotation Xrotation Yrotation
                JOINT lMid2
                {
                  OFFSET 3.10165 -0.590103 1.0647
                  CHANNELS 3 Zrotation Xrotation Yrotation
                  End Site
                  {
                    OFFSET 2.48547 -0.328903 0.83742
                  }
                }
              }
              JOINT lRing1
              {
                OFFSET 8.82822 0.546677 1.51678
                CHANNELS 3 Zrotation Xrotation Yrotation
                JOINT lRing2
                {
                  OFFSET 2.60934 -0.819778 -0.0198488
                  CHANNELS 3 Zrotation Xrotation Yrotation
                  End Site
                  {
                    OFFSET 2.33842 -0.294052 0.168128
                  }
                }
              }
              JOINT lPinky1
              {
                OFFSET 8.27202 -0.0477905 -0.4584
                CHANNELS 3 Zrotation Xrotation Yrotation
                JOINT lPinky2
                {
                  OFFSET 1.82734 -0.647385 -0.700984
                  CHANNELS 3 Zrotation Xrotation Yrotation
                  End Site
                  {
                    OFFSET 1.69225 -0.51767 -0.607171
                  }
                }
              }
            }
          }
        }
      }
    }
  }
  JOINT rButtock
  {
    OFFSET -8.77824 4.35084 1.2192
    CHANNELS 3 Zrotation Xrotation Yrotation
    JOINT rThigh
    {
      OFFSET 0 -1.70687 -2.19456
      CHANNELS 3 Zrotation Xrotation Yrotation
      JOINT rShin
      {
        OFFSET 0 -36.8199 0.73152
        CHANNELS 3 Zrotation Xrotation Yrotation
        JOINT rFoot
        {
          OFFSET 0.73152 -45.1104 -5.12064
          CHANNELS 3 Zrotation Xrotation Yrotation
          End Site
          {
            OFFSET -1.1221 -3.69964 12.103
          }
        }
      }
    }
  }
  JOINT lButtock
  {
    OFFSET 8.77824 4.35084 1.2192
    CHANNELS 3 Zrotation Xrotation Yrotation
    JOINT lThigh
    {
      OFFSET 0 -1.70687 -2.19456
      CHANNELS 3 Zrotation Xrotation Yrotation
      JOINT lShin
      {
        OFFSET 0 -36.8199 0.73152
        CHANNELS 3 Zrotation Xrotation Yrotation
        JOINT lFoot
        {
          OFFSET -0.73152 -45.1104 -5.12064
          CHANNELS 3 Zrotation Xrotation Yrotation
          End Site
          {
            OFFSET 1.1221 -3.69964 12.103
          }
        }
      }
    }
  }
}
MOTION
Frames:	4
Frame Time:	0.00833333
57.8326 85.6239 -229.127 0.0 0.0 0.0 2.92754 -0.000271613 0.0794062 0.8084 0.0125508 0.139891 -3.12607e-14 0.0 5.96354e-16 -9.29008e-14 3.18055e-15 1.98629e-15 -0.0 0.0 0.0 -0.0 0.0 0.0 -1.5606e-14 7.7262e-17 3.97569e-16 -3.24564e-13 1.27968e-15 6.55989e-15 -5.66318e-12 1.73599e-12 2.06736e-13 -6.4722e-11 -1.42106e-12 1.16408e-12 -1.52704e-10 6.87308e-13 2.99608e-12 -2.63728e-10 1.18317e-12 5.17397e-12 -1.52699e-10 6.87e-13 2.99608e-12 7.73091 5.47488 0.417314 -1.52704e-10 6.87497e-13 2.99608e-12 2.90554 0.965183 0.102902 -1.52696e-10 6.87397e-13 2.99767e-12 10.2786 0.731801 0.0259123 -1.52707e-10 6.88193e-13 3.00562e-12 2.22167 -0.733487 -0.20892 -1.57036e-14 7.80385e-17 9.93923e-17 -3.28436e-13 1.45361e-15 5.1684e-15 -5.64966e-12 -1.63977e-12 1.68569e-13 -6.47575e-11 1.96996e-12 1.21815e-12 -1.5274e-10 7.15132e-13 2.99608e-12 -2.63761e-10 1.23087e-12 5.17794e-12 -1.52745e-10 7.18805e-13 3.00562e-12 -7.73091 5.47488 -0.417314 -1.5274e-10 7.15525e-13 2.9929e-12 -2.90554 0.965183 -0.102902 -1.52752e-10 7.16022e-13 2.99608e-12 -10.2786 0.731801 -0.0259123 -1.5274e-10 7.14035e-13 2.98654e-12 -2.22167 -0.733487 0.20892 -2.03217e-16 0.0 -3.88251e-19 2.65146 -9.02431 -0.296418 0.00838679 10.7662 0.215091 -0.488508 -1.75286 0.019588 2.03217e-16 0.0 3.88251e-19 1.80674 -1.93229 -0.0128305 0.00826323 -2.0787 0.0676622 0.414787 3.99994 -0.125967
56.2986 84.1048 -229.739 -1.9374 -8.3563 6.0856 5.08878 1.62346 0.994188 0.26319 0.725708 0.40374 -2.87668 -2.3084 -1.10657 1.39048 1.18498 -1.0072 -0.0 0.0 0.0 -0.0 0.0 0.0 1.45389e-14 2.85196e-14 -7.79395e-14 19.6749 12.8948 0.211526 -7.28865 -4.2869 10.1275 0.0177309 -2.95451 -0.413237 -6.99131e-11 4.71087e-11 3.21305e-11 -1.21647e-10 8.19148e-11 5.56962e-11 -6.99088e-11 4.71086e-11 3.21278e-11 7.73091 5.47488 0.417314 -6.99103e-11 4.71069e-11 3.21333e-11 2.90554 0.965183 0.102902 -6.99066e-11 4.71086e-11 3.21323e-11 10.2786 0.731801 0.0259123 -6.99158e-11 4.711e-11 3.21401e-11 2.22167 -0.733487 -0.20892 1.44264e-14 2.85199e-14 -7.82264e-14 -21.3666 8.82563 -0.135227 4.51992 -2.11714 -6.98958 -0.00014153 0.26745 -0.0375863 -2.00587e-10 9.02265e-11 1.30161e-10 -3.45714e-10 1.56625e-10 2.25682e-10 -2.00593e-10 9.02304e-11 1.30168e-10 -7.73091 5.47488 -0.417314 -2.0059e-10 9.02238e-11 1.30157e-10 -2.90554 0.965183 -0.102902 -2.00598e-10 9.02281e-11 1.30161e-10 -10.2786 0.731801 -0.0259123 -2.00588e-10 9.02259e-11 1.30152e-10 -2.22167 -0.733487 0.20892 -2.03217e-16 0.0 -3.88251e-19 5.12204 -7.49222 0.297367 0.0747279 12.9802 0.556662 -0.518494 -7.09112 0.233856 2.03217e-16 0.0 3.88251e-19 2.80265 -13.8907 1.68277 -0.121913 8.07784 -0.253304 0.480985 -1.34197 1.2345
56.2782 84.1418 -229.263 -2.0046 -8.4324 6.176 7.31431 3.33418 1.95805 -0.315323 1.46956 0.680827 -6.00924 -4.71714 -2.27825 2.88821 2.4256 -2.07187 -0.0 0.0 0.0 -0.0 0.0 0.0 4.89157e-14 6.53344e-14 -1.69498e-13 40.36 26.5357 0.458128 -13.3688 -8.37253 21.0108 -0.0101136 -6.08036 -0.854182 2.81241e-11 1.07019e-10 7.46401e-11 4.64151e-11 1.86235e-10 1.29413e-10 2.8128e-11 1.07019e-10 7.46343e-11 7.73091 5.47488 0.417314 2.81303e-11 1.07015e-10 7.46458e-11 2.90554 0.965183 0.102902 2.81295e-11 1.07019e-10 7.4642e-11 10.2786 0.731801 0.0259123 2.81222e-11 1.07021e-10 7.46496e-11 2.22167 -0.733487 -0.20892 4.8784e-14 6.53343e-14 -1.69775e-13 -43.9188 18.156 -0.270492 8.74326 -4.25197 -14.4126 9.15026e-05 0.545168 -0.0766183 -2.65644e-10 2.10054e-10 2.93915e-10 -4.57184e-10 3.64588e-10 5.09525e-10 -2.65651e-10 2.10058e-10 2.93921e-10 -7.73091 5.47488 -0.417314 -2.65651e-10 2.10048e-10 2.93912e-10 -2.90554 0.965183 -0.102902 -2.65654e-10 2.10056e-10 2.93917e-10 -10.2786 0.731801 -0.0259123 -2.65645e-10 2.10054e-10 2.93907e-10 -2.22167 -0.733487 0.20892 -2.03217e-16 0.0 -3.88251e-19 7.69934 -5.89862 0.932104 0.115151 15.3466 0.925157 -0.507705 -12.7648 0.455889 2.03217e-16 0.0 3.88251e-19 4.71395 -26.4897 3.77507 -0.129768 18.8374 -0.619853 0.827286 -6.98738 2.68418
56.2277 84.1754 -228.862 -2.2079 -8.4873 6.2612 9.2553 4.86574 2.83277 -0.846947 2.15179 0.931999 -8.89903 -6.91484 -3.34135 4.29658 3.55053 -3.02676 -0.0 0.0 0.0 -0.0 0.0 0.0 7.48286e-14 8.54042e-14 -2.34614e-13 58.6711 38.682 0.792418 -17.4844 -11.2541 30.955 -0.0759651 -8.86166 -1.25302 9.5668e-11 1.39951e-10 9.03994e-11 1.62514e-10 2.43378e-10 1.56741e-10 9.56714e-11 1.39952e-10 9.03911e-11 7.73091 5.47488 0.417314 9.56768e-11 1.39946e-10 9.04076e-11 2.90554 0.965183 0.102902 9.56723e-11 1.39951e-10 9.04016e-11 10.2786 0.731801 0.0259123 9.56667e-11 1.39954e-10 9.04089e-11 2.22167 -0.733487 -0.20892 7.46864e-14 8.54035e-14 -2.34878e-13 -63.9624 26.4763 -0.447851 12.0415 -5.97415 -21.0742 0.000628188 0.802349 -0.112769 -2.96281e-10 2.69249e-10 3.84489e-10 -5.09619e-10 4.67414e-10 6.66691e-10 -2.96288e-10 2.69254e-10 3.84494e-10 -7.73091 5.47488 -0.417314 -2.9629e-10 2.6924e-10 3.84486e-10 -2.90554 0.965183 -0.102902 -2.9629e-10 2.69252e-10 3.84492e-10 -10.2786 0.731801 -0.0259123 -2.96282e-10 2.6925e-10 3.84483e-10 -2.22167 -0.733487 0.20892 -2.03217e-16 0.0 -3.88251e-19 9.96771 -4.42664 1.47438 0.124442 17.4058 1.26252 -0.453333 -17.7666 0.68995 2.03217e-16 0.0 3.88251e-19 7.3956 -37.6607 6.22746 -0.00441833 28.3875 -1.00894 1.38581 -11.9977 4.04224
